# xmcd
#
# Track frame offsets: 
#        150
#        19205
#        36649
#        54644
#        69395
#        88568
#        103015
#        119294
#        136319
#        154740
#        167872
#        183595
#
# Disc length: 2690 seconds
#
# Revision: 0
# Processed by: cddbd v1.5.2PL0 Copyright (c) Steve Scherf et al.
# Submitted via: ExactAudioCopy v0.99pb3
#
DISCID=a70a800c
DTITLE=Various Artist - 30 Anni Di Successi Italiani Vol.1
DYEAR=2003
DGENRE=Folk
TTITLE0=E Dimmi Che Non Vuoi Morire - Patty Pravo
TTITLE1=Io Amo - Fausto Leali
TTITLE2=La Mia Nemica Amatissima (live) - Gianni Morandi
TTITLE3=Signor Tenente - Giorgio Faletti
TTITLE4=Il Mare D'inverno - Loredana Berté
TTITLE5=Su Di Noi - Pupo
TTITLE6=Vamos A La Playa - Righeira
TTITLE7=Portami A Ballare - Luca Barbarossa
TTITLE8=Luci A San Siro (live) - Roberto Vecchioni
TTITLE9=Sarà Perché Ti Amo - Ricchi e Poveri
TTITLE10=Un'estate Al Mare - Giuni Russo
TTITLE11=Anima Mia (live) - I Cugini Di Campagna
EXTD=
EXTT0=
EXTT1=
EXTT2=
EXTT3=
EXTT4=
EXTT5=
EXTT6=
EXTT7=
EXTT8=
EXTT9=
EXTT10=
EXTT11=
PLAYORDER=
